<?xml version="1.0" encoding="utf-8"?>
<!-- Generator: Adobe Illustrator 26.5.0, SVG Export Plug-In . SVG Version: 6.00 Build 0)  -->
<svg version="1.1" id="レイヤー_1" xmlns="http://www.w3.org/2000/svg" xmlns:xlink="http://www.w3.org/1999/xlink" x="0px"
	 y="0px" viewBox="0 0 186.9542694 36.1213417" style="enable-background:new 0 0 186.9542694 36.1213417;" xml:space="preserve">
<style type="text/css">
	.st0{fill:#FFFFFF;}
</style>
<g>
	<g>
		<path d="M89.6120071,25.1373844h14.628891v-4.4821243h-7.4256439l7.4256439-7.8665924V5.51476l-3.2374878-3.1639924H92.663147
			L89.6120071,5.51476v6.1710443h4.5968704v-4.889421h5.3251495v4.1184525l-9.92202,10.4777212V25.1373844z M88.7253494,25.9813671
			h16.3576355v-6.1743584h-6.2445221l6.2445221-6.6499243V5.1425519l-3.7154236-3.6732154h-9.0363235l-3.6058884,3.7130508
			v7.3843851h6.3251343V7.6816201h3.6381378v2.9041572l-9.9632721,10.4744072V25.9813671z M89.1705704,25.5807114v-4.3379745
			l9.9229813-10.47299V7.2382927h-4.4475174v4.8908396h-5.4754639V5.3293719l3.3067093-3.4195585h8.7086792l3.4920959,3.4195585
			v7.6461158l-6.8718185,7.2392969h6.8718185v5.3659267H89.1705704z"/>
		<path d="M112.8001709,16.6084194h3.5651321v3.1986046h-3.5651321V16.6084194z M112.3587418,20.2147846h4.4110031v-4.010334
			h-4.4110031V20.2147846z M111.9215775,15.767272h5.2891235v4.8884802h-5.2891235V15.767272z M107.324707,21.9402122
			l3.1241608,3.1971855h8.3440704l3.0805283-3.1971855v-7.531847l-3.0805283-3.1260529h-6.8713608V6.7963982h5.2891235v1.9131889
			h4.6627655V5.5147743l-3.0805283-3.1639924h-8.3440704l-3.1241608,3.1639924V21.9402122z M106.4428024,22.3067341
			l3.6333923,3.6746483h9.0453262l3.6376572-3.6746483v-8.2293234L119.121521,10.43927h-6.3213501V7.6816349h3.5651169v1.9122343
			h6.3938904V5.1828647l-3.6376572-3.7135139h-9.0453262l-3.6333923,3.7135139V22.3067341z M106.8832779,22.1222858V5.3293867
			l3.383049-3.419559h8.6726379l3.3797226,3.419559v3.8225727h-5.5489426V7.2383075h-4.4110031v3.5997233h6.5802231
			l3.3797226,3.4233494v7.8609056l-3.3797226,3.4584408h-8.6726379L106.8832779,22.1222858z"/>
		<polygon points="19.3467216,2.2952611 19.3467216,7.0229959 14.7612362,7.0229959 14.7612362,25.9813385 7.0440006,25.9813385 
			7.0440006,7.0229959 2.4627805,7.0229959 2.4627805,2.2952611 		"/>
		<polygon points="22.5718269,2.2952611 35.4240875,2.2952611 35.4240875,7.0229959 30.2933311,7.0229959 30.2933311,11.5330896 
			35.0765343,11.5330896 35.0765343,16.0474529 30.2933311,16.0474529 30.2933311,21.2545433 35.9224129,21.2545433 
			35.9224129,25.9813385 22.5718269,25.9813385 		"/>
		<path d="M41.7663383,2.2951164l-3.9216766,23.6860771h7.9803848l0.4243622-4.2450485h2.780407l0.4129829,4.2450485h7.8836594
			L52.9026566,2.2951164H41.7663383z M46.201046,17.5498848c0.2067299-2.1075907,0.6922569-5.4380007,1.4570541-10.0045271
			c0.4006577,3.9809456,0.793251,7.3132658,1.1815796,10.0045271H46.201046z"/>
		<path d="M83.9261627,2.2952611v23.6860771h-6.7305374l-0.0241776-15.9731112l-2.6632919,15.9731112h-4.7784576
			l-2.8126526-15.652112l-0.027977,15.652112h-6.7262573V2.2952611h9.9552155
			c0.2915955,1.4366682,0.6026382,3.1179926,0.9184189,5.0525255l1.1095047,6.015986l1.779953-11.068511H83.9261627z"/>
		<path d="M4.753767,32.1529922c-0.0934067-0.7776108-0.1820741-1.7382355-0.2754807-2.8814125
			c-0.1820741,1.3134003-0.2953949,2.2763977-0.3399658,2.8814125H4.753767z M5.696373,27.7438812l1.0198927,6.857132H4.8955355
			L4.797864,33.3668098H4.1587086l-0.105257,1.2342033H2.2080641l0.9103673-6.857132H5.696373z"/>
		<path d="M14.0490627,27.7438812v6.857132h-1.5580521v-4.6291065l-0.6230288,4.6291065H10.763216l-0.6552706-4.5219574v4.5219574
			H8.5456238v-6.857132h2.3105249c0.0692272,0.412508,0.1375036,0.8980427,0.2105217,1.458952l0.2550926,1.7439213
			l0.4087152-3.2028732H14.0490627z"/>
		<polygon points="14.7696247,27.7438812 17.7401619,27.7438812 17.7401619,29.1174908 16.5505238,29.1174908 
			16.5505238,30.4147568 17.6628799,30.4147568 17.6628799,31.7200813 16.5505238,31.7200813 16.5505238,33.2293015 
			17.857275,33.2293015 17.857275,34.6010132 14.7696247,34.6010132 		"/>
		<path d="M23.8746929,27.7438812v6.857132h-1.5618477v-4.6291065l-0.619236,4.6291065h-1.1085587l-0.6562214-4.5219574v4.5219574
			h-1.5575714v-6.857132h2.3067265c0.0682755,0.412508,0.1375065,0.8980427,0.2105217,1.458952l0.2546177,1.7439213
			l0.4087162-3.2028732H23.8746929z"/>
		<path d="M26.3715591,31.5090961v1.9207706c0.2508202-0.0104294,0.4091854-0.0488358,0.4817314-0.1199532
			c0.0687523-0.0706558,0.1009922-0.2446709,0.1009922-0.5220451v-0.6391449c0-0.2916126-0.0284481-0.4713135-0.0891342-0.5324783
			C26.800663,31.5536633,26.6385002,31.5171566,26.3715591,31.5090961 M26.3715591,28.9174023v1.523428
			c0.0772839-0.001894,0.1379776-0.0042686,0.1782761-0.0042686c0.174015,0,0.2873344-0.0402985,0.335701-0.127058
			c0.0483589-0.0853577,0.0687466-0.3338051,0.0687466-0.7429981c0-0.2119408-0.0156422-0.3636723-0.0564194-0.4490147
			c-0.0403042-0.0848808-0.0891399-0.1394024-0.1536255-0.1616859
			C26.6792831,28.9316254,26.5536346,28.9216709,26.3715591,28.9174023 M24.5911312,27.7438812h1.7766304
			c0.5623417,0,0.9871769,0.0421944,1.27878,0.1313438c0.2873344,0.0848656,0.5220356,0.2626705,0.7003193,0.5300884
			c0.1778049,0.2674313,0.2669392,0.698431,0.2669392,1.2887421c0,0.4030304-0.0606861,0.6818199-0.1906033,0.8401928
			c-0.1251793,0.1574173-0.3722076,0.2792683-0.7444172,0.3646107c0.4167824,0.0924625,0.6922607,0.2484627,0.8420887,0.4604015
			c0.1450882,0.2190609,0.218111,0.5485973,0.218111,0.9957161v0.6353569c0,0.4656105-0.0526333,0.8050995-0.1578941,1.0279503
			c-0.1052628,0.2266426-0.2749996,0.3764763-0.5054398,0.4613419c-0.2304325,0.081089-0.7045803,0.1213875-1.424818,0.1213875
			h-2.0596962V27.7438812z"/>
		<polygon points="29.3825397,27.7438812 32.3530769,27.7438812 32.3530769,29.1174908 31.1634388,29.1174908 
			31.1634388,30.4147568 32.275795,30.4147568 32.275795,31.7200813 31.1634388,31.7200813 31.1634388,33.2293015 
			32.4701881,33.2293015 32.4701881,34.6010132 29.3825397,34.6010132 		"/>
		<path d="M34.7691956,28.9174023v1.523428c0.1981926,0,0.3394852-0.0260735,0.4205666-0.0805969
			c0.0806046-0.0564327,0.1213799-0.235178,0.1213799-0.5362663v-0.3769398c0-0.2162228-0.0407753-0.3617744-0.1171112-0.4281635
			C35.1167412,28.9515362,34.9754486,28.9174023,34.7691956,28.9174023 M32.9845009,27.7438812h1.2626534
			c0.8416176,0,1.4082184,0.0322399,1.7074127,0.0971947c0.2991867,0.0668659,0.5424232,0.2323418,0.7325592,0.4950142
			c0.1863327,0.2697906,0.2792664,0.6927299,0.2792664,1.2811451c0,0.5319996-0.0649567,0.8909245-0.1981926,1.0744305
			c-0.133709,0.1825371-0.3968582,0.2930145-0.7851868,0.3299999c0.3560829,0.0872383,0.5907898,0.2043571,0.7121696,0.3537159
			c0.1213799,0.1460438,0.194397,0.2792683,0.2266426,0.4030285c0.0284462,0.1232834,0.0445671,0.4594479,0.0445671,1.0137272
			v1.808876H35.311142V32.322258c0-0.367939-0.0279694-0.5941029-0.0853424-0.6789818
			c-0.060215-0.089613-0.2100525-0.1341801-0.456604-0.1341801v3.091917h-1.7846947V27.7438812z"/>
		<path d="M41.4790535,29.5064259c0-0.3200588-0.0203857-0.524416-0.0531044-0.6130733
			c-0.0365067-0.0872536-0.1090508-0.1341934-0.2185822-0.1341934c-0.0971985,0-0.1654739,0.0388813-0.2143097,0.1095371
			c-0.0483665,0.0749111-0.0768166,0.2835369-0.0768166,0.6377296v3.200964c0,0.4006538,0.0203896,0.6448479,0.0526276,0.7363548
			c0.027977,0.0929413,0.1047935,0.141777,0.2266502,0.141777c0.1171112,0,0.1981926-0.0545387,0.2304306-0.1621666
			c0.0327187-0.1071472,0.0531044-0.3617744,0.0531044-0.7666969V29.5064259z M43.2632751,31.7600479
			c0,0.6884613-0.0203896,1.1777878-0.0526276,1.4608459c-0.0322456,0.2873421-0.1332397,0.5504913-0.303463,0.7875671
			c-0.1702156,0.2384911-0.4006462,0.4181938-0.6922493,0.5462227c-0.2911263,0.1275368-0.6310959,0.192028-1.015625,0.192028
			c-0.3684196,0-0.6960526-0.0602226-0.9914474-0.1820755c-0.2911263-0.1190147-0.5258255-0.2991905-0.7041092-0.5381622
			c-0.1778069-0.2408638-0.2830658-0.5040131-0.3157845-0.7832947c-0.0360374-0.2849541-0.0526237-0.7766571-0.0526237-1.4831314
			v-1.175415c0-0.6903572,0.0165863-1.1758938,0.0488358-1.4632206c0.032238-0.284956,0.1332283-0.5476398,0.3034515-0.7851925
			c0.1702156-0.2342224,0.4044495-0.4181938,0.6960526-0.5457439c0.2915955-0.1275387,0.6268196-0.1905975,1.015625-0.1905975
			c0.3641396,0,0.6960487,0.0611629,0.987175,0.1782684c0.2915955,0.1232834,0.530098,0.3034611,0.7041092,0.540535
			c0.1782761,0.2403889,0.2878075,0.5035362,0.3157845,0.7851925c0.0365067,0.2806873,0.0568962,0.7761784,0.0568962,1.4807587
			V31.7600479z"/>
		<polygon points="43.9269829,27.7438812 46.9458885,27.7438812 46.9458885,29.1174908 45.7074127,29.1174908 
			45.7074127,30.4147568 46.8121796,30.4147568 46.8121796,31.7200813 45.7074127,31.7200813 45.7074127,34.6010132 
			43.9269829,34.6010132 		"/>
		<path d="M53.0686531,30.7301559h-1.780899v-1.191534c0-0.3461342-0.0199165-0.5642376-0.0564232-0.6495819
			c-0.0403061-0.0848789-0.1251793-0.129446-0.2546196-0.129446c-0.1460381,0-0.2394409,0.0526257-0.279747,0.1578941
			c-0.0360374,0.1033592-0.0564232,0.3319092-0.0564232,0.6775513v3.1848564c0,0.3338051,0.0203857,0.5504913,0.0564232,0.6538506
			c0.0403061,0.1033745,0.1299171,0.1517296,0.2674179,0.1517296c0.133709,0,0.2228508-0.0483551,0.2588882-0.1536255
			c0.0445671-0.1014633,0.0644836-0.3423271,0.0644836-0.7169075V31.851511h1.780899v0.2688503
			c0,0.7083702-0.0483665,1.2142944-0.149826,1.5096817c-0.0972023,0.2949257-0.3195839,0.5566559-0.6638145,0.7809258
			c-0.34375,0.2228508-0.7643242,0.3361778-1.2664452,0.3361778c-0.5263023,0-0.954937-0.0976868-1.2911072-0.2840309
			c-0.3437614-0.1901169-0.5666046-0.4504318-0.675663-0.7889671c-0.1090508-0.3319092-0.165947-0.8373566-0.165947-1.5073242
			v-2.0051746c0-0.4935818,0.0161209-0.8634167,0.0526276-1.1123562c0.0327148-0.2451324,0.133709-0.4822063,0.3039322-0.7131176
			c0.165947-0.2304325,0.400177-0.4082375,0.6960487-0.5376854c0.2987099-0.1332226,0.6429405-0.1981926,1.0274773-0.1981926
			c0.5258255,0,0.959198,0.1009998,1.2991676,0.3034611c0.3437538,0.2019844,0.5666046,0.457552,0.675663,0.7586403
			c0.1052589,0.3058205,0.1578865,0.7747593,0.1578865,1.4167576V30.7301559z"/>
		<polygon points="57.8116989,27.7438812 57.8116989,34.6010132 56.0270004,34.6010132 56.0270004,31.7200813 
			55.4926376,31.7200813 55.4926376,34.6010132 53.7122154,34.6010132 53.7122154,27.7438812 55.4926376,27.7438812 
			55.4926376,30.1956978 56.0270004,30.1956978 56.0270004,27.7438812 		"/>
		<rect x="58.5279541" y="27.7436352" width="1.7846899" height="6.8571329"/>
		<path d="M62.8095131,31.5090961v1.9207706c0.251297-0.0104294,0.4125061-0.0488358,0.4812584-0.1199532
			c0.0687485-0.0706558,0.105732-0.2446709,0.105732-0.5220451v-0.6391449c0-0.2916126-0.0327148-0.4713135-0.0934105-0.5324783
			C63.2386169,31.5536633,63.0764503,31.5171566,62.8095131,31.5090961 M62.8095131,28.9174023v1.523428
			c0.0768051-0.001894,0.1332321-0.0042686,0.177803-0.0042686c0.1740074,0,0.2873306-0.0402985,0.336174-0.127058
			c0.0488358-0.0853577,0.0730133-0.3338051,0.0730133-0.7429981c0-0.2119408-0.0199089-0.3636723-0.0606918-0.4490147
			c-0.0407791-0.0848808-0.0934029-0.1394024-0.1545677-0.1616859
			C63.1167564,28.9316254,62.991581,28.9216709,62.8095131,28.9174023 M61.0248146,27.7438812h1.780899
			c0.5623436,0,0.9871788,0.0421944,1.2783012,0.1313438c0.2873383,0.0848656,0.5220413,0.2626705,0.6960526,0.5300884
			c0.1825409,0.2674313,0.2712173,0.698431,0.2712173,1.2887421c0,0.4030304-0.0644836,0.6818199-0.1901321,0.8401928
			c-0.1256561,0.1574173-0.3717346,0.2792683-0.7444229,0.3646107c0.4125137,0.0924625,0.6913147,0.2484627,0.8416214,0.4604015
			c0.1460342,0.2190609,0.2185822,0.5485973,0.2185822,0.9957161v0.6353569c0,0.4656105-0.0521545,0.8050995-0.1578979,1.0279503
			c-0.1047821,0.2266426-0.2754745,0.3764763-0.5059128,0.4613419c-0.2347031,0.081089-0.708374,0.1213875-1.4243431,0.1213875
			h-2.0639648V27.7438812z"/>
		<path d="M67.9527359,32.1529922c-0.0886688-0.7776108-0.1778107-1.7382355-0.2702637-2.8814125
			c-0.1830215,1.3134003-0.2963409,2.2763977-0.3447037,2.8814125H67.9527359z M68.9000854,27.7438812l1.0194168,6.857132
			h-1.8249969l-0.0967255-1.2342033h-0.6353607l-0.1047897,1.2342033h-1.8458481l0.9103622-6.857132H68.9000854z"/>
		<polygon points="73.5338364,27.7438812 73.5338364,33.2293015 74.6182175,33.2293015 74.6182175,34.6010132 
			71.7529373,34.6010132 71.7529373,27.7438812 		"/>
		<path d="M77.212326,29.5064259c0-0.3200588-0.0203857-0.524416-0.0526276-0.6130733
			c-0.0365067-0.0872536-0.1095352-0.1341934-0.2190552-0.1341934c-0.0924683,0-0.1654816,0.0388813-0.2138519,0.1095371
			c-0.0483627,0.0749111-0.073494,0.2835369-0.073494,0.6377296v3.200964c0,0.4006538,0.0161362,0.6448479,0.048851,0.7363548
			c0.02845,0.0929413,0.1090469,0.141777,0.2266388,0.141777c0.1175842,0,0.1977158-0.0545387,0.2309113-0.1621666
			c0.0360336-0.1071472,0.0526276-0.3617744,0.0526276-0.7666969V29.5064259z M78.9922791,31.7600479
			c0,0.6884613-0.0113754,1.1777878-0.0478973,1.4608459c-0.0327148,0.2873421-0.1299133,0.5504913-0.3039246,0.7875671
			c-0.1697464,0.2384911-0.4011307,0.4181938-0.6917725,0.5462227c-0.2911377,0.1275368-0.6315689,0.192028-1.0198975,0.192028
			c-0.3641434,0-0.6917877-0.0602226-0.9876556-0.1820755c-0.2911301-0.1190147-0.5262985-0.2991905-0.7036362-0.5381622
			c-0.1782761-0.2408638-0.2835388-0.5040131-0.3200455-0.7832947c-0.0327148-0.2849541-0.0483627-0.7766571-0.0483627-1.4831314
			v-1.175415c0-0.6903572,0.0156479-1.1758938,0.0483627-1.4632206c0.0327148-0.284956,0.1337128-0.5476398,0.3039246-0.7851925
			c0.1735382-0.2342224,0.4044495-0.4181938,0.6951065-0.5457439c0.2925491-0.1275387,0.6277695-0.1905975,1.0123062-0.1905975
			c0.3684006,0,0.6998367,0.0611629,0.9914474,0.1782684c0.2911148,0.1232834,0.5258179,0.3034611,0.7041016,0.540535
			c0.177803,0.2403889,0.2840118,0.5035362,0.3200455,0.7851925c0.0365219,0.2806873,0.0478973,0.7761784,0.0478973,1.4807587
			V31.7600479z"/>
		<polygon points="83.2501297,27.7438812 83.2501297,29.1174908 82.1899414,29.1174908 82.1899414,34.6010132 
			80.4090347,34.6010132 80.4090347,29.1174908 79.3573837,29.1174908 79.3573837,27.7438812 		"/>
		<polygon points="87.2480545,27.7438812 87.2480545,29.1174908 86.1916504,29.1174908 86.1916504,34.6010132 
			84.4074326,34.6010132 84.4074326,29.1174908 83.3548203,29.1174908 83.3548203,27.7438812 		"/>
		<polygon points="87.6572876,27.7438812 90.6316223,27.7438812 90.6316223,29.1174908 89.4419861,29.1174908 
			89.4419861,30.4147568 90.5543289,30.4147568 90.5543289,31.7200813 89.4419861,31.7200813 89.4419861,33.2293015 
			90.7492065,33.2293015 90.7492065,34.6010132 87.6572876,34.6010132 		"/>
		<path d="M98.2918167,27.7438812v6.857132h-1.5580521l-0.0037918-4.6291065l-0.6187592,4.6291065h-1.1047592l-0.6557617-4.5219574
			v4.5219574h-1.5623093v-6.857132h2.3105164c0.0649719,0.412508,0.1370316,0.8980427,0.2109985,1.458952l0.2546158,1.7439213
			l0.4087143-3.2028732H98.2918167z"/>
		<path d="M101.1450424,32.1529922c-0.0886612-0.7776108-0.1782684-1.7382355-0.2669373-2.8814125
			c-0.186821,1.3134003-0.2991943,2.2763977-0.3442383,2.8814125H101.1450424z M102.0919189,27.7438812l1.0194168,6.857132
			h-1.8249969l-0.092926-1.2342033h-0.6391602l-0.1052551,1.2342033h-1.8415909l0.9065628-6.857132H102.0919189z"/>
		<path d="M105.2003479,28.9174023v1.523428c0.1977158,0,0.3399582-0.0260735,0.4200897-0.0805969
			c0.0815506-0.0564327,0.1180573-0.235178,0.1180573-0.5362663v-0.3769398c0-0.2162228-0.0365067-0.3617744-0.1137924-0.4281635
			C105.5436325,28.9515362,105.4018555,28.9174023,105.2003479,28.9174023 M103.4151764,27.7438812h1.2626495
			c0.8420868,0,1.4120102,0.0322399,1.7078934,0.0971947c0.2991791,0.0668659,0.5424194,0.2323418,0.7282791,0.4950142
			c0.1910934,0.2697906,0.2835388,0.6927299,0.2835388,1.2811451c0,0.5319996-0.0687485,0.8909245-0.1986542,1.0744305
			c-0.1332397,0.1825371-0.3959274,0.2930145-0.7847137,0.3299999c0.3522797,0.0872383,0.5907898,0.2043571,0.7121582,0.3537159
			c0.1213913,0.1460438,0.1944046,0.2792683,0.2266388,0.4030285c0.02845,0.1232834,0.0445709,0.4594479,0.0445709,1.0137272
			v1.808876h-1.6590424V32.322258c0-0.367939-0.02845-0.5941029-0.0848618-0.6789818
			c-0.0611649-0.089613-0.2067337-0.1341801-0.4532852-0.1341801v3.091917h-1.7851715V27.7438812z"/>
		<rect x="108.0892258" y="27.7436352" width="1.780906" height="6.8571329"/>
		<polygon points="114.5679855,27.7438812 114.5679855,34.6010132 113.0018692,34.6010132 112.0796661,31.4849186 
			112.0796661,34.6010132 110.5870361,34.6010132 110.5870361,27.7438812 112.0796661,27.7438812 113.0786896,30.8291588 
			113.0786896,27.7438812 		"/>
		<polygon points="115.2846603,27.7438812 118.2552109,27.7438812 118.2552109,29.1174908 117.065094,29.1174908 
			117.065094,30.4147568 118.1779099,30.4147568 118.1779099,31.7200813 117.065094,31.7200813 117.065094,33.2293015 
			118.3765793,33.2293015 118.3765793,34.6010132 115.2846603,34.6010132 		"/>
		<path d="M122.6661987,29.8177586h-1.6552505v-0.5097141c0-0.235178-0.0246582-0.3845215-0.0644913-0.4494915
			c-0.0445709-0.0644779-0.1133118-0.0990906-0.2105255-0.0990906c-0.1057281,0-0.1901169,0.0445671-0.2427597,0.1337013
			c-0.0568924,0.0872536-0.0858231,0.2204933-0.0858231,0.3987617c0,0.2266407,0.0331955,0.400177,0.0934219,0.5158787
			c0.0606842,0.1152096,0.2271042,0.2569847,0.5059052,0.4191475c0.7937317,0.4689255,1.295372,0.8577309,1.4978333,1.1611919
			c0.2062531,0.2996559,0.3115234,0.7889843,0.3115234,1.460371c0,0.4902649-0.0568924,0.8477745-0.1744919,1.0805779
			c-0.112854,0.2304459-0.335701,0.4257889-0.6633301,0.5832062c-0.3281174,0.156002-0.7079086,0.2347031-1.1412811,0.2347031
			c-0.4774551,0-0.8861771-0.0934029-1.2223511-0.2716866c-0.3390121-0.1815948-0.558075-0.4120293-0.6638031-0.6913109
			c-0.1047897-0.2792702-0.1578979-0.6761322-0.1578979-1.1901016v-0.449028h1.659523v0.8335495
			c0,0.2588959,0.0203857,0.4224739,0.0687561,0.4973869c0.0488358,0.0715942,0.1294327,0.1095352,0.2470322,0.1095352
			c0.1218491,0,0.2105179-0.0483704,0.2669373-0.1417732c0.0569-0.0910454,0.0848846-0.2304344,0.0848846-0.414402
			c0-0.4030304-0.0521698-0.6661797-0.1659546-0.7937317c-0.112854-0.1232834-0.392601-0.3295364-0.8335571-0.619236
			c-0.4404907-0.2968216-0.736351-0.5073433-0.8824005-0.6410446c-0.1450882-0.1337147-0.2631454-0.3153114-0.3556061-0.5504913
			c-0.0971985-0.2328053-0.1417618-0.5338936-0.1417618-0.8980408c0-0.5258217,0.0649567-0.9084606,0.1986694-1.153595
			c0.1374893-0.2427616,0.3518066-0.4328957,0.651474-0.5685062c0.2991791-0.1356125,0.6638107-0.2043571,1.0843735-0.2043571
			c0.4651489,0,0.8577271,0.0725517,1.1853714,0.2223721c0.3238449,0.1517315,0.5381622,0.3404465,0.6481628,0.5666103
			c0.1047897,0.2271194,0.1574173,0.6154461,0.1574173,1.1597729V29.8177586z"/>
	</g>
	<g>
		<g>
			<polygon class="st0" points="133.9986115,36.1806259 129.9902496,31.4214878 129.9902496,4.9789906 133.9222565,0.1053257 
				143.5168915,0.1053257 147.4616241,4.8644662 147.4616241,15.0826197 139.0504303,15.0826197 139.0504303,19.2818604 
				147.4616241,19.2818604 147.4616241,31.3578625 143.5805206,36.1806259 			"/>
			<polygon points="140.0302429,20.8088589 145.9473572,20.8088589 145.9473572,30.810688 142.8551941,34.6536293 
				134.7112122,34.6536293 131.5045166,30.8743134 131.5045166,5.5134397 134.647583,1.6323227 142.8042908,1.6323227 
				145.9473572,5.4116402 145.9473572,13.5556231 140.0302429,13.5556231 140.0302429,6.7986617 137.5234222,6.7986617 
				137.5234222,29.4872894 140.0302429,29.4872894 			"/>
		</g>
		<g>
			<polygon class="st0" points="148.6480865,36.1806259 148.6480865,0.1053257 157.44104,0.1053257 158.280899,4.4445429 
				159.1461945,0.1053257 168.0409546,0.1053257 168.0409546,36.1806259 			"/>
			<polygon points="160.3932343,1.6323227 166.5266724,1.6323227 166.5266724,34.6536293 160.7113647,34.6536293 
				160.7113647,21.8650322 158.9553223,34.6536293 157.5682983,34.6536293 155.9776764,21.8650322 155.9776764,34.6536293 
				150.1750793,34.6536293 150.1750793,1.6323227 156.1940002,1.6323227 158.2681732,12.3849258 			"/>
		</g>
		<g>
			<polygon class="st0" points="173.1339874,36.1806259 169.2528687,31.408762 169.2528687,22.5267315 177.6640625,22.5267315 
				177.6640625,21.2669563 173.1339874,21.2669563 169.2528687,16.4950905 169.2528687,4.8644652 173.1976013,0.1053257 
				182.7922211,0.1053257 186.6733398,4.8644652 186.6733398,13.6955967 183.0976257,13.6955967 186.6733398,18.0220871 
				186.6224518,31.421484 182.7285919,36.1806259 			"/>
			<polygon points="173.910202,1.6323227 182.0669098,1.6323227 185.1590881,5.4116416 185.1590881,12.1813288 
				179.1910706,12.1813288 179.1910706,6.7477636 176.7351379,6.7477636 176.7351379,14.8408442 182.0669098,14.8408442 
				185.1590881,18.5692596 185.095459,30.8743114 182.0160065,34.6536293 173.8592987,34.6536293 170.7671204,30.8743114 
				170.7671204,24.0537281 176.7351379,24.0537281 176.7351379,29.4872932 179.1910706,29.4872932 179.1910706,19.7399597 
				173.8592987,19.7399597 170.7671204,15.96064 170.7671204,5.4116416 			"/>
		</g>
	</g>
</g>
</svg>
